<?xml version="1.0" encoding="utf-8"?>
<!-- Generator: Adobe Illustrator 25.3.1, SVG Export Plug-In . SVG Version: 6.00 Build 0)  -->
<svg version="1.1" id="图层_1" xmlns="http://www.w3.org/2000/svg" xmlns:xlink="http://www.w3.org/1999/xlink" x="0px" y="0px"
	 viewBox="0 0 196 30" style="enable-background:new 0 0 196 30;" xml:space="preserve">
<style type="text/css">
	.st0{fill:#111111;}
	.st1{fill:#5D86A0;}
</style>
<g id="Layer_1">
	<path class="st0" d="M50.2,18.8V9.2h2.4l1.6,4.2h0.1V9.2h2.1v9.6h-2.3l-1.7-5v5H50.2 M65.5,18.8h-2.4l-0.2-1.2h-1.5l-0.2,1.2h-2.4
		l1.8-9.7h3L65.5,18.8 M61.5,15.7h1.2l-0.6-4C62.1,11.7,61.5,15.7,61.5,15.7z M68.5,9.2H71v9.7h-2.5V9.2z M77.9,9.2h2.3l-1.9,9.6
		h-2.5l-2.3-9.6h2.4l1,5.5H77L77.9,9.2 M82.6,18.8V9.2H88v2h-2.9v1.6h2.4v2.1h-2.4v1.9h3v2H82.6 M95,9.2h2.5v9.7H95V9.2z
		 M100.7,18.8V9.2h2.4l1.6,4.2h0.1V9.2h2.1v9.6h-2.3l-1.7-5v5H100.7 M113.8,12.2c0-1.1-0.4-1.3-0.9-1.3s-0.7,0.3-0.7,0.6
		c0,1.2,4,2.1,4,4.8c0,1.9-1.3,2.7-3.4,2.7c-2.6,0-3.1-1.7-3.1-3.4h2.3V16c0,0.6,0.4,1.1,1,1.1c0.5,0,0.9-0.3,0.9-0.8
		c0-1.3-4-2.3-4-4.9c0-1.6,1.4-2.5,3.1-2.5c1.9,0,3.1,1.1,3.1,2.7V12h-2.3 M122.7,11.2v7.6h-2.5v-7.6h-1.9v-2h6.3v2L122.7,11.2
		 M127.2,18.8V9.2h3.1c2.1,0,3.1,0.6,3.1,2.7c0,1.5-0.7,2-1.2,2.2c0.9,0.1,1.2,1.5,1.2,2.7c0,1,0.1,1.6,0.3,2h-2.4
		c-0.2-0.8-0.3-1.3-0.3-2c0-1.6-0.1-1.9-1-1.9h-0.4v3.9H127.2 M129.6,13.2h0.4c0.7,0,0.9-0.4,0.9-1.2s-0.2-1.2-0.9-1.2h-0.4V13.2z
		 M142.5,9.2v7.3c0,1.6-1.1,2.5-3.1,2.5s-3.1-0.9-3.1-2.5V9.2h2.5v7c0,0.5,0.1,0.8,0.6,0.8s0.6-0.3,0.6-0.8v-7L142.5,9.2
		 M145.5,18.8V9.2h2.9l1.1,4.6l1-4.6h3v9.6h-2.2v-5.7l-1.1,5.7h-1.4l-1.1-5.7h-0.1v5.7H145.5 M156.4,18.8V9.2h5.4v2h-2.9v1.6h2.4
		v2.1h-2.4v1.9h3.1v2H156.4 M164.8,18.8V9.2h2.4l1.6,4.2V9.2h2.2v9.6h-2.4l-1.7-5v5H164.8 M177.9,11.2v7.6h-2.5v-7.6h-1.9v-2h6.3v2
		L177.9,11.2 M185.9,12.2c0-1.1-0.4-1.3-0.9-1.3s-0.7,0.3-0.7,0.6c0,1.2,4,2.1,4,4.8c0,1.9-1.3,2.7-3.4,2.7c-2.6,0-3.1-1.7-3.1-3.4
		h2.3V16c0,0.6,0.4,1.1,1,1.1c0.5,0,0.9-0.3,0.9-0.8c0-1.3-4-2.3-4-4.9c0-1.6,1.4-2.5,3.1-2.5c1.9,0,3.1,1.1,3.1,2.7V12h-2.3"/>
</g>
<g id="Layer_4">
	<path class="st1" d="M40,3H21v24h19V3z M31,22h-3V8h3V22z"/>
	<path class="st0" d="M2.6,3C8.7,4.5,14.8,5.3,21,5.3c6.1,0,12.3-0.8,18.4-2.3l-1.6-0.9c0.5,1.2,0.8,3.2,1.1,5.5
		c0.2,2.3,0.4,4.8,0.4,7.4s-0.1,5.2-0.4,7.4c-0.2,2.3-0.6,4.2-1.1,5.5l1.6-0.9c-6.1-1.5-12.3-2.3-18.4-2.3h-0.1
		c-6.1,0-12.3,0.8-18.4,2.3l1.7,0.9c-0.4-1.2-0.8-3.2-1.1-5.5c-0.2-2.3-0.4-4.8-0.4-7.4s0.1-5.2,0.4-7.4c0.2-2.3,0.6-4.2,1.1-5.5
		L2.6,3l0.3-1.4L1.6,1.2C1,2.8,0.7,4.9,0.4,7.3S0,12.3,0,15s0.1,5.3,0.4,7.7s0.6,4.5,1.2,6.1L2,30l1.2-0.3
		c5.9-1.5,11.8-2.2,17.7-2.2s11.8,0.7,17.7,2.2l1.2,0.3l0.4-1.2c0.6-1.6,0.9-3.7,1.2-6.1s0.4-5.1,0.4-7.7c0-2.7-0.1-5.3-0.4-7.7
		c-0.3-2.4-0.6-4.5-1.2-6.1L39.9,0l-1.2,0.3C32.8,1.8,26.9,2.5,21,2.5h-0.1C15,2.5,9.1,1.8,3.3,0.3L2,0L1.6,1.2l1.3,0.5"/>
	<path class="st0" d="M11,22v-7l2,7h3V8h-3v6l-2-6H8v14H11z"/>
</g>
</svg>
